<?xml version="1.0" encoding="UTF-8"?>
<svg id="Capa_2" data-name="Capa 2" xmlns="http://www.w3.org/2000/svg" viewBox="0 0 142.11 92.73">
  <defs>
    <style>
      .cls-1 {
        fill: #9c9c9c;
      }
    </style>
  </defs>
  <g id="Capa_1-2" data-name="Capa 1">
    <g>
      <path class="cls-1" d="M18.56,69.4l-7.98-2.81c-14.36-7.37-13.99-29.68.39-37.15,7.95-4.13,20.96-3.26,26.74,4.19,1.79,2.3,2.3,5.12,4.18,7.19l.59-13.41h25.37c2.21,0,8.07.72,10.19,1.47,2.51.89,4.38,2.8,6.42,4.36l.09-4.88.87-.87c5.38-.75,10.68,1.33,15.96-.08v13.41c3.59-4.87,5.53-8.98,11.27-11.77,13.95-6.8,27.26,1.57,28.39,16.44h-14.58c-.31,0-.59-3.87-3.93-4.57-7.75-1.61-8.54,15.03.12,14.52,4.48-.26,3.65-5.05,4.77-5.31l13.62-.56c.31,9.11-4.75,16.09-13.41,18.67-.16.96.79.54,1.44.58,2.79.17,7.39.13,9.91.6s3.04,7.27,3.1,9.61c.06,2.1-.17,7.92-.43,9.94-.2,1.52-.8,2.39-2.2,3.05L.48,92.73v-22.46l.87-.87h17.21ZM58.81,43.74c2.16-.09,7.64.65,8.17-2.04,1.22-6.13-4.02-4.58-8.17-4.97v7ZM27.9,45.48c.09-6.46-9.58-6.42-9.92,0h9.92ZM58.81,68.23h24.21c.65-.51,1.46-3.7,1.46-4.37v-17.21c-4.25,4.45-8.84,5.95-14.91,6.43-3.35.27-8.17-1.39-10.75.86v14.29ZM42.48,50.15h-23.64c-.86.12-.93-.36-.87.88.14,3.13,3.73,5.63,6.7,5.56,3.73-.09,4.41-3.13,6.46-3.52,1.71-.33,10.37.35,10.75-.04l.61-2.88ZM101.39,54.23v13.71c.64,1,1.57.86,2.61.92,2.55.16,5.79-.92,8.48-.92l-6.41-5.26-4.68-8.44ZM41.89,68.81v-12.25l-3.26,5.2c-2.98,3.82-7.55,5.63-11.91,7.34l15.17-.29ZM23.23,79.31c-.76-6.56-9.77-8.6-13.54-3.33-3.38,4.73-1.55,11.5,4.33,12.86,2.82.65,6-1.04,9.22-.19l-.55-6.75-4.1-.23c-.13,6.86-8.83.88-4.72-3.26,2.7-2.72,4.72.81,5.1.89,1.26.28,2.92-.15,4.26,0ZM134.05,79.31c-.56-9.98-15.8-7.27-15.14,1.97.62,8.74,8.91,7.25,15.15,7.36v-7c-4.66-1.15-3.9,1.51-5.04,2.38-3,2.29-6.57-2.27-4.25-5.55s6.11,2.23,9.29.83ZM34.84,73.54l-6.28.02-4.17,15.08c2.32-.04,4.67.84,4.74-2.25h4.52s1.02,2.18,1.02,2.18l4.3.06-4.14-15.1ZM50.35,73.48c-2.68-.61-7.27.44-10.21,0v15.16h4.67s.29-6.42.29-6.42l2.72,6.32,5.15.1-2.96-7.21c3.75-1.17,3.9-7.15.34-7.95ZM54.14,88.64h9.62c.62,0,3.32-2.53,3.72-3.28,1.56-2.95,1.15-7.85-1.38-10.14-.34-.31-2.75-1.74-2.92-1.74h-9.04v15.16ZM80.97,73.48h-11.08v15.16h11.67s0-3.5,0-3.5h-7s0-2.33,0-2.33l4.88-.08c.95-.28.92-1.07.98-1.95.03-.49-.04-.99-.02-1.47h-5.84s0-1.74,0-1.74h6.42s0-4.09,0-4.09ZM82.72,73.48v15.16h4.08v-8.17l2.97,8.11,6.36.06v-15.16h-4.08v8.17l-2.98-8.1-6.35-.07ZM102.55,73.48h-4.67v15.16h4.67v-15.16ZM104.3,73.48v15.16h4.67s.29-7,.29-7l2.6,6.74,5.86.27v-15.16h-4.09s-.29,7.59-.29,7.59l-2.71-7.51-6.33-.08Z"/>
      <path class="cls-1" d="M94.39,5.82c5.18.44,8.22,3.81,7.59,9.06-.42,3.53-3.53,4.88-5.87,6.95-1.15,1.02-1.2,2.89-3.17,2.7-1.58-.16-1.62-2.12-2.68-3.21-1.28-1.32-4.05-2.17-5.23-4.11-3.57-5.89,1.47-9.62,6.42-11.68,0-.81-5.98-2.18-3.51-4.68,4.05-1.81,5.58,4.04,7.89-.85,1.97,1.1-2.23,4.97-1.46,5.82Z"/>
      <path class="cls-1" d="M59.39,76.98c5.72-.07,5.82,8.96,0,8.17v-8.17Z"/>
    </g>
  </g>
</svg>