<?xml version="1.0" encoding="UTF-8"?>
<svg id="Capa_2" data-name="Capa 2" xmlns="http://www.w3.org/2000/svg" viewBox="0 0 202.7 66.57">
  <defs>
    <style>
      .cls-1 {
        fill: #9c9c9c;
      }
    </style>
  </defs>
  <g id="Capa_1-2" data-name="Capa 1">
    <g>
      <path class="cls-1" d="M116.58,55.17c-2.98-2.04-2,.11-2.96,1.69-2,3.25-9.41,2.89-12.76,2.43-7.02-.98-13.86-4.39-20.47-6.8,0-7.53-.63-15.54.21-23.01.28-2.42.8-5.67,1.9-7.82.68-1.32,2.61-2.24.33-3.26-2.78-1.24-8.01-.45-8.85,3.05-3.56-4.76-10.53-1.01-13.3,2.84-4.61,6.41-7.54,26.79,5.15,23.65,3.36-.83,4.97-2.78,7.21-5.18v7.21c-2.57-.15-7.65-1.2-9.54.97-1.73,1.99-.44,5.26,2.18,5.32.65.01.59-1.11,1.09-1.75,1.33-1.73,4.67-1.15,6.58-.78v5.8c0,.38.63,2.13.88,2.57,1.57,2.84,5.76,1.71,7.92.23-.84-1.87-1.96-3.97-1.43-6.09,9.25,4.65,22.89,13.13,33.55,9.41,4.68-1.63,6.61-7.55,2.31-10.48ZM73.04,34.46c0,.8-1.66,4.19-2.25,4.96-3.51,4.57-4.75-.17-4.66-3.72.1-3.86,1.74-12.76,6.91-12.37v11.13Z"/>
      <path class="cls-1" d="M15.05,27.72c2.01-.27,3.63-.55,5.57-1.16s4.56-3.03,5.78-.01c2.72,6.69-10.83,8.26-14.81,8.07-.35.35.44,8.63,1.09,9.41,1.15,1.36,9.65-.65,11.53-1.33,2.03-.74,2.29-2.21,4.12-.52,2.38,2.2,3.41,5.68.3,7.75-4.1,2.72-18.45,4.05-22.05.52-3.15-3.09-1.99-15-2.85-15.8-.67-.63-6.48.66-2.16-4.56.65-.79,2.47-1.78,2.51-1.94.2-.84-.17-7.29-.65-7.62-.32-.22-3.69,1.66-2.74-2.91,1.48-7.13,17.33-9.95,23.26-10.27,4.7-.25,13.29.24,10.58,7.13-1.49,3.79-4.97,2.36-7.9,1.97-2.09-.16-4.17-.15-6.27,0-3.04.37-6.08,1.01-9.09,1.57,2.4,1.76,1.29,4.61,1.25,7.21l-.13,2.42c.06.44,1.87.33,2.64.09Z"/>
      <path class="cls-1" d="M161.11,14.87c-.67-.38-6.95-1.83-7.21-1.57,0,8.58-13.6,5-9.73-2.36,2.73-5.18,12.55-1.79,16.93-.78-.12-3.1-.63-6.13-1.56-9.07,10.49-3.51,11.11,1.81,9.39,10.64,7.26,1.06,16.81,1.33,21.93-4.86.46-.56,1.41-2.5,1.74-2.65.49-.24.44.24.55.39,4.43,6.14.52,11.5-6.03,12.93-6.14,1.34-12.15-.29-18.19-1.28-.35.25-.84,7.41-.93,8.49-.49,6.38-2,18.19.66,23.78,1.16,2.44,1.99,2.32,3.83,3.69,1.67,1.24-2.13,2.43-3.39,2.48-5.67.2-8.2-4.12-8.94-9.11-.23-2.51-.23-5.02,0-7.52.02-4.63.4-8.9.63-13.48.27-3.25.38-6.49.31-9.72Z"/>
      <path class="cls-1" d="M111.9,51.23c-.86,2.27-4.76,3.52-7.06,3.47-5.19-.13-6.16-7.34-6.74-11.3l-2.66,4.39c-3.16,4.11-7.97,1.54-9.79-2.44-2.46-5.39-2.13-20.68,1.22-25.56,1.75-2.55,5-3.19,7.94-2.72,1.28.2.15,2.28-.07,3.38-.85,4.44-3.03,15.25-.68,18.99,1.2,1.91,3.27.74,3.65-.96.45-2,.14-6.02.38-8.39.15-1.48.97-7.45,1.73-8.3,1.34-1.5,5.43-.99,7.13-.26,2.56,1.1.97,2.06.45,4.08-1.47,5.74-2.75,16.95.26,22.17.87,1.51,2.45,3.12,4.21,3.47Z"/>
      <path class="cls-1" d="M199.89,49.28c-3.78-1.31-5.29-7.84-5.55-11.38-.24-3.25.65-10.11-.15-12.7-.77-2.53-4.87-.54-5.46-.96-.14-.11-1.01-2.37-1.76-3.1-3.33-3.22-8.95.13-11.26,3.15-3.02,3.94-4.31,12.2-3.94,17.06,1,12.98,11.94,12.16,15.83,1.42.76,1.77.99,3.48,1.98,5.22,2.5,4.4,8.41,6.91,12.56,3.05,1.73-1.6-.93-1.3-2.25-1.76ZM185.53,37.76c-.07.8-2.02,4.04-2.67,4.74-3.9,4.25-4.73-.58-4.32-4.11.44-3.84,2.86-12.55,7.97-11.71l-.98,11.08Z"/>
      <path class="cls-1" d="M32.29,20.83c.19-.68.69-1.78,1.24-2.36,1.2-1.26,3.55-1.25,5.18-1.08,3.46.36,1.62,3.14,1.73,5.79.06,1.42.54,3.97.89,5.38.06.24-.09,1.03.51.73.4-.2,2.07-3.63,2.54-4.36,2.2-3.44,6.68-9.43,10.97-10.03,3.1-.43,6.2.22,6.11,3.9-.09,3.47-1.94,2.77-4.42,4.06-3.83,1.99-7.72,5.69-10.28,9.15-.63.85-2.56,3.63-2.74,4.49-.35,1.63,3.19,6.41,4.8,6.82.85.22,2.36.15,3.22-.07,1.36-.36,1.86-1.75,3.12-2.05,2.26,5.39-.27,10.93-6.71,10-3.15-.45-6.91-5.4-8.8-7.81-.41-.18-3.27,7.71-3.76,8.15-1.64,1.5-3.84-1.52-3.89-3.32-.1-3.41,4.15-8.85,4.04-10.6-.05-.76-2.08-4.72-2.52-5.97-.46-1.31-.94-2.89-1.24-4.24-.29-2.19-.36-4.39,0-6.58Z"/>
      <path class="cls-1" d="M134.78,31.48c.99-1.48,1.48-4.69.32-6.12-2.46-3.03-10.15,3.02-4.09,6.6,2.18,1.29,4.93,1.63,7.31,3.03,11.84,6.98,1.85,20.36-9.44,16.96-4.74-1.43-7.03-6.63-3.98-10.75,1.72,1.86,5.89,3.62,8,1.73,1.59-1.43.55-2.53-.8-3.62-3.19-2.57-8.66-4.52-9.48-9.32-1.29-7.52,6.38-13.83,13.53-12.91,8.78,1.14,7.6,14.91-1.38,14.39Z"/>
      <path class="cls-1" d="M110.96,23.96c1.96-.43,8.71-2.67,9.58-.02.96,2.92-1.25,8.92-1.7,12.13-.68,4.81-.56,10.86,2.77,14.69-4.15,3.49-9.54-.42-10.88-4.79-1.11-3.6.98-9.71,1.18-13.69.14-2.81-.21-5.62-.96-8.32Z"/>
      <path class="cls-1" d="M151.02,21.21c3.2-.03,4.56.77,4.45,4.15-.23,6.83-2.92,12.46.16,19.6.44,1.02,2.59,3.72,2.64,3.95.21.91-3.25,1.66-3.91,1.7-3.88.23-7.18-2.63-7.63-6.47-.05-6.14.62-12.32.29-18.47-.04-.76-.68-3.1-.6-3.41.17-.64,3.9-1.04,4.61-1.04Z"/>
      <path class="cls-1" d="M115.89,10.24c7.58-1.58,7.69,10.99.33,10.2-5.98-.64-4.62-9.3-.33-10.2Z"/>
    </g>
  </g>
</svg>