<?xml version="1.0" encoding="UTF-8"?>
<svg id="Capa_2" data-name="Capa 2" xmlns="http://www.w3.org/2000/svg" viewBox="0 0 1920.09 162.64">
  <defs>
    <style>
      .cls-1 {
        fill: #fff;
      }

      .cls-2 {
        fill: #d1ebff;
      }
    </style>
  </defs>
  <g id="Capa_1-2" data-name="Capa 1">
    <rect class="cls-1" y="61.88" width="1920.09" height="100.76"/>
    <path class="cls-2" d="M1920.09,60.32v102.32c-37.43-24.27-97.58-55.1-171.93-54.67-86.01.49-106.45,42.32-197.4,46.67-103.99,4.95-111.95-48.1-219.76-48-109.67.09-117.12,54.98-221.1,48-87.75-5.91-101.33-46.27-188.95-42.67-72.64,2.98-73.95,31.15-147.94,37.33-100.08,8.35-116.5-41.62-219.23-42.66-107.19-1.11-110.36,53.08-210.38,48-96.57-4.92-122.03-56.88-209.05-52C77.02,105.85,30.9,131.63,0,154.21V51.89C30.9,29.31,77.02,3.53,134.35.32c87.02-4.88,112.48,47.08,209.05,52,100.02,5.08,103.19-49.11,210.38-48,102.73,1.04,119.15,51.01,219.23,42.66,73.99-6.18,75.3-34.35,147.94-37.33,87.62-3.6,101.2,36.76,188.95,42.67,103.98,6.98,111.43-47.91,221.1-48,107.81-.1,115.77,52.95,219.76,48,90.95-4.35,111.39-46.18,197.4-46.67,74.35-.43,134.5,30.4,171.93,54.67Z"/>
  </g>
</svg>