<?xml version="1.0" encoding="UTF-8"?>
<svg id="Capa_2" data-name="Capa 2" xmlns="http://www.w3.org/2000/svg" viewBox="0 0 213.84 59.99">
  <defs>
    <style>
      .cls-1 {
        fill: #9c9c9c;
      }
    </style>
  </defs>
  <g id="Capa_1-2" data-name="Capa 1">
    <g>
      <path class="cls-1" d="M18.18.05c15.11-1.09,25.59,15.13,18.56,28.57s-26.75,13.87-34.21.52C-4.5,16.55,3.88,1.09,18.18.05ZM5.73,20.43c.33-1.52.35-2.94.76-4.47C8.7,7.87,17.97,3.9,25.5,7.51c2.09,1,2.88,3.17,4.49.34.51-.91-.49-1.29-1.23-1.81C17.92-1.51,2.44,6.94,3.12,20.1c.21.65,2.03.31,2.61.33ZM18.85,8.51c-4.88.26-9.27,4.06-10.32,8.83-.14.63-.48,2.56,0,2.93s2.24.35,2.6-.11c.23-.3.31-2.26.53-3.03,1.64-5.65,9.07-7.37,13.41-3.59.64.17,1.94-1.53,1.81-2.04-.48-1.89-6.32-3.08-8.03-2.99ZM13.81,20.43l2.43-.07c.49-.35.05-2.7,2.34-3.45,1.92-.63,3.09,1.06,3.65.78.38-.46,1.79-1.46,1.46-2.12-2.52-2.58-6.59-2.27-8.81.55-.87,1.11-1.66,2.94-1.07,4.31Z"/>
      <path class="cls-1" d="M151.49,9.4c9.95-1.02,13.96,6.07,11.77,15.11s-17.91,9.4-20.08-.27c-1.54-6.88.4-14.04,8.3-14.85ZM151.7,12.51c-7.05,1.02-6.89,14.68,0,15.68,4.03.59,7.11-.93,7.97-5.05,1.24-5.95-.96-11.66-7.97-10.64Z"/>
      <path class="cls-1" d="M186.42,9.4c7-.72,11.78,2.36,12.28,9.62.38,5.54-1.4,10.8-7.33,12.02-6.82,1.4-12.91-1.21-13.58-8.69-.58-6.55,1.41-12.21,8.63-12.95ZM186.64,12.5c-7.01,1.1-6.88,14.87.19,15.72,4,.48,6.91-1.03,7.78-5.08,1.27-5.92-.97-11.74-7.97-10.64Z"/>
      <path class="cls-1" d="M102.46,9.33l6.56,17.14,6.23-17.14h4.01l-9.67,24.27c-1.46,2.52-3.71,5.43-6.77,5.75l-1.11-2.61c2.23-1.09,4.53-2.97,5.09-5.46l-8.24-21.94h3.89Z"/>
      <path class="cls-1" d="M71.86,13.56c-1.96-.34-3.89-.98-5.9-1.11-2.41-.16-7.3-.29-7.47,3-.24,4.48,5.9,2.95,8.75,3.29,3.56.43,5.42,2.77,5.43,6.32.01,8.03-11.82,6.72-16.95,5.21l-.1-3.13c3.16.69,9.54,2.26,12.22.09,1.61-1.3,1.24-4.05-.71-4.82-3.7-1.45-11.16,1.6-12.12-5.02-1.43-9.89,10.48-8.62,16.76-6.96l.1,3.13Z"/>
      <path class="cls-1" d="M139.29,10v3.12c-7.11-1.6-14.4-1.26-13.81,7.91.52,8.1,7.49,7.99,13.81,6.56v3.12c-8.03,1.76-16.94.65-17.59-9.23-.77-11.68,7.97-13.4,17.59-11.47Z"/>
      <rect class="cls-1" x="77.65" y="1.32" width="3.78" height="30.04"/>
      <rect class="cls-1" x="168.89" y="1.32" width="3.78" height="30.04"/>
      <path class="cls-1" d="M95,9.33l-8.42,11.05,7.98,10.98h-4.9l-6.73-9.18c-.31-.76-.29-2.64.08-3.36l7.09-9.49h4.9Z"/>
      <path class="cls-1" d="M203.61,9.33l2.46.1.77,2.57c2.09-1.55,4.3-2.79,7.01-2.67v3.12c-2.46.08-4.75,1.02-6.45,2.78v16.13h-3.78V9.33Z"/>
      <path class="cls-1" d="M92.78,54.07c-.34,0-.37.77-.41,1.03-.23,1.44-.25,2.94-.51,4.38l-.32.35-.75.03.67-8.12.36-.54c.36-.09.59-.05.87.2.61.55,2.34,4.95,3.17,6.16.14.2-.04.41.5.29l-.22-7.57,1.01.21c.23,1.38.73,8.66-.11,9.27-.22.16-.5.13-.75.06-1-.29-3.06-4.63-3.5-5.75Z"/>
      <path class="cls-1" d="M87.9,59.38l-.47-1.98c-.84.83-.48,1.71-1.95,1.95-3.85.63-2.72-5.08-3.27-6.86-.34-1.1-1.76-.63-1.46-1.99,3.58-.07,2.39,3.86,2.99,6.24.45,1.79,1.85,2.3,2.3.27.3-1.37.11-6.32.47-6.83.2-.28.87-.17,1.04.08l1.42,8.79-1.08.33Z"/>
      <path class="cls-1" d="M61.46,58.24l.5.19c1.27-.1,1.76-3.91,1.87-4.95.07-.65-.14-2.61.23-2.88l.77-.08c.27.09.31.29.36.54.4,2.17-.3,5.44.43,7.76l-1.09.35-.45-1.55c-.46,1.47-1.51,2.28-3.06,1.61-1.85-.79-1.62-5.92-1.62-7.62l-.75.21c-1.09-.92.7-1.72,1.55-1.12,1.05.75.28,2.33.3,3.24s.39,3.7.97,4.28Z"/>
      <path class="cls-1" d="M72.37,58.22c-1.14-.98-2-3.5-3.4-4.38l-.49,4.96-.29.37-.67-.22.34-7.02c.04-.59.65-.73,1.11-.45.37.22,2.45,3.59,3.05,4.28.14.16,0,.42.51.28.18-.24.26-4.38.49-5.18.07-.25.44-.66.73-.6.48.1.36,1.72.35,2.12-.03.78-.59,5.78-.89,6.02-.27.18-.62-.02-.83-.2Z"/>
      <path class="cls-1" d="M188.03,55.96c.09-1,.66-3.75,1.33-4.46,1.51-1.58,5.51-.56,2.8,2.35-.45.48-1.31.7-1.44,1.41.05.29,2.56,2.6,2.89,3.14.21.34.52,1.06-.13,1.02-1.26-.07-2.96-3.13-4.11-3.79l-.26,3.42-1.08.37c.07-1.12-.1-2.34,0-3.45ZM191.81,51.84c-1.74-.24-2.1.98-2.22,2.45.24.25,2.65-2.04,2.22-2.45Z"/>
      <path class="cls-1" d="M121.49,58.18c-.1.61-.59.72-1.13.46l-.18-.27c.35-2.15-.69-7.1,1.81-7.92,3.86-1.27,3.68,3.11.83,3.94.32.7,2.64,1.99,3.13,2.66.21.29.51,1.05-.13,1.02-1.38-.06-2.96-2.68-4.34-3.12-.11,1,.15,2.27,0,3.23ZM121.49,53.62c1.16-.17,2.85-.99,2.01-2.35-1.54-.02-2.07.89-2.01,2.35Z"/>
      <path class="cls-1" d="M183.43,51.46c.63-.7,1.8-.69,2.49-.08,1.79,1.58,1.54,6.4-.35,7.9-1.28,1.01-3.54,1.09-3.78-.88-.16-1.36.74-5.95,1.63-6.95ZM184.6,52.07c-.64.11-1.6,4.08-1.67,4.8-.05.62-.22,1.86.57,2.06,2.79-.43,3.4-5.52,1.09-6.86Z"/>
      <path class="cls-1" d="M146,58.93c.26-2.17-.79-5.83-.21-7.83.42-1.45,3.07-.19,3.85.51,3.72,3.38.88,7.92-3.64,7.31ZM147.08,57.85c4.66-.58,3.54-5.27-.11-6.46l.11,6.46Z"/>
      <path class="cls-1" d="M116.78,49.87l.03.86c-2.38-.42-3.22.8-3.33,3.02-.02.37-.09.34.28.28.48-.09,2.33-.57,2.59-.39l.04.97-3.1.62c-1.13,4.55,2.4,1.95,4.3,1.95.48,0,.45.37.34.76-.12.43-5.71,2.57-6.02-.85-.09-.96.53-4.65.89-5.58.64-1.68,2.34-2.33,3.98-1.63Z"/>
      <path class="cls-1" d="M107.89,59.39l-1.07-.34c-.39-1.06-3.7-7.6-3.36-8.09l1.12.15c.86,1.71,1.48,3.92,2.38,5.57.14.26-.01.38.49.28l2.02-6.88,1.08.35-2.67,8.97Z"/>
      <path class="cls-1" d="M172.16,50.77c4.44-1.32,3.99,7.75-.04,7.76-3.46.01-1.47-7.31.04-7.76ZM173.06,57.11c1-.81,1.99-5.13-.26-5.29-.55.05-.62.59-.79,1.01-.29.72-1.06,4.14-.41,4.54.46.09,1.1.04,1.47-.26Z"/>
      <path class="cls-1" d="M135.95,51.18v.66c3.53-1.21,3.49,2.12,2.69,4.57-1.04,3.19-3.84,2.05-4.22-.7-.17-1.19-.28-4.89,1.53-4.54ZM137.05,57.17c.51-1.41,1.38-3.29.34-4.66-.12-.02-1.56.66-1.66.77-.64.71-.22,4.12,1.33,3.89Z"/>
      <path class="cls-1" d="M130.82,57.84c1.72-2.92-2.69-2.81-2.46-5.23.08-.85,3.1-3.95,3.58-2.01-5.59,3.35.65,2.79.43,5.98-.19,2.82-2.86,2.99-4.44,1.15-.58-.68-.64-1.97.33-1.67.23.07.36.76.7,1.08.26.25,1.6.87,1.86.69Z"/>
      <path class="cls-1" d="M156.43,50.5l-.03.86c-1.42.09-2.21,1.6-2.2,2.92.95.04,2.33-1.03,2.67.33l-2.87.81c-.41,3.05.49,2.83,3.08,3.11l.02.87c-1.12-.05-2.65.27-3.55-.57-1.8-1.67-.69-9.04,2.88-8.33Z"/>
      <path class="cls-1" d="M198.66,52.02c-.37.26-2.02.29-2.4,1.26l2.23.11-.03.86-2.65.35c-.69,1.69.18,2.74,1.91,2.82.79.03,1.62-.63,1.89.53-1.38,1.04-4.26.58-4.91-1.09-.12-.32-.44-2.65-.39-2.86.21-.93,2.94-3.27,4.03-3.02.49.11.7.78.33,1.04Z"/>
      <path class="cls-1" d="M200.71,57.18c1.07-.18,1.34,1.16,2.57,1.1.65-.03,1.49-1.4,1.17-1.95-.36-.62-3.08-1.49-2.81-3.22.29-1.86,4.47-2.23,3.42-.82-.31.42-2.06.06-2.14.99.63,1.98,4.29,2.31,2.21,5.08-1.22,1.63-4.67.99-4.42-1.19Z"/>
      <path class="cls-1" d="M168.19,58.32c.34.21.16.92-.35,1.05-.72.19-2.42-.68-2.83-1.31-.98-1.48-.66-5.42.88-6.45.64-.42,3.23-.81,3.45-.11.42,1.33-2.36.29-3.12,1.32-.63.85-.84,3.89-.09,4.79.62.74,1.78.51,2.07.7Z"/>
      <path class="cls-1" d="M177.79,58.29h1.43c.29.03.16,1.04-.24,1.08-.62.1-2.29.15-2.51-.56l.92-7.03c.8-.99,1.11-.06,1.08.84-.03.82-.94,5.42-.68,5.67Z"/>
      <path class="cls-1" d="M101.45,51.63c.13,1.81.63,3.88.69,5.66.04,1.02-.61,1.87-1.08.84-.62-1.34-.16-4.43-.72-5.96.04-.61.6-.62,1.11-.54Z"/>
    </g>
  </g>
</svg>