<?xml version="1.0" encoding="UTF-8"?>
<svg id="Capa_2" data-name="Capa 2" xmlns="http://www.w3.org/2000/svg" viewBox="0 0 256.65 24.93">
  <defs>
    <style>
      .cls-1 {
        fill: #9c9c9c;
      }
    </style>
  </defs>
  <g id="Capa_1-2" data-name="Capa 1">
    <g>
      <path class="cls-1" d="M0,16.6c1.53.29,7.34-.45,8.29.13s.32,1.43,2.63,1.64c4.86.45,10.4-.37,15.34,0,1.69-.13,2.02-2.76.22-3-5.88-.81-19.12,1.78-23.34-2.03C-.86,9.71.62,1.73,6.01.39c7.01.47,16.09-1.07,22.88,0,2.63.41,4.94,2.12,5.95,4.59.31.76,1,2.47.44,3.08h-7.66c-.11,0-.3-1.29-1.39-1.5-5.1.34-10.81-.48-15.83-.02-2.55.23-2.43,2.77-.24,3.03,5.97.7,18.51-1.73,22.96,1.9,4.32,3.52,2.86,11.29-2.79,12.74-3.95,1.01-17.65.77-22.18.44-3.55-.26-6.82-1.9-7.73-5.58l-.43-1.96v-.5Z"/>
      <path class="cls-1" d="M216.47.27v6.28h-25.36c.13.97-.36,2.28.38,3.01h23.23v5.4l-.38.38h-22.6l-.34.42c-.07.23-.03.47-.05.7-.05.62-.12,1.51.39,1.9h24.74v6.28h-33.15V.27h33.15Z"/>
      <path class="cls-1" d="M109.74,24.63V.27h28.75c.79,0,3.47,1.29,4.23,1.8,5.95,4.05,6.22,15.73.65,20.15-1.11.88-4.27,2.41-5.63,2.41h-28ZM118.03,18.35h16.95c.73,0,2.7-1.48,3.14-2.13,1.44-2.13,1.12-6.7-.78-8.52-.2-.19-1.75-1.15-1.86-1.15h-17.45v11.8Z"/>
      <path class="cls-1" d="M249.24.27c1.06.13,3.49,1.03,4.38,1.65,3.65,2.57,3.48,9.35-1.08,10.89l-.15.51c5.21,2.1,3.05,7.15,4.27,11.31h-7.91c-1.08-1.74,0-4.94-1.24-6.54-.17-.22-1.1-.99-1.27-.99h-16.2v7.53h-8.04V.27h27.25ZM230.03,7.05v3.77h16.95c.84,0,1.43-1.06,1.41-1.89-.07-2.05-2.29-2.04-3.9-2.14-3.64-.23-9.21-.26-12.83,0-.56.04-1.07.22-1.62.26Z"/>
      <path class="cls-1" d="M66.8,24.63L82.23.51l10.71-.07,15.04,24.2h-8.91c-.96-.71-1.97-3.56-3.02-3.76l-17.4.05-2.69,3.71h-9.17ZM92.41,15.09c.09-.45-.12-.72-.29-1.09-.26-.54-4.38-7.18-4.73-6.95l-4.52,8.04h9.54Z"/>
      <polygon class="cls-1" points="72.32 .27 72.32 6.55 59.27 6.55 59.27 24.63 51.48 24.63 51.48 6.93 51.1 6.55 37.42 6.55 37.42 .27 72.32 .27"/>
      <polygon class="cls-1" points="157.96 .27 157.96 18.35 179.3 18.35 179.3 24.26 178.93 24.63 150.17 24.63 150.17 .27 157.96 .27"/>
    </g>
  </g>
</svg>