<?xml version="1.0" encoding="UTF-8"?>
<svg id="Capa_2" data-name="Capa 2" xmlns="http://www.w3.org/2000/svg" viewBox="0 0 191.08 86.47">
  <defs>
    <style>
      .cls-1 {
        fill: #898989;
      }

      .cls-2 {
        fill: #9c9c9c;
      }

      .cls-3 {
        fill: #fcfcfc;
      }

      .cls-4 {
        fill: #fefefe;
      }

      .cls-5 {
        fill: #a6a6a6;
      }

      .cls-6 {
        fill: #8e8e8e;
      }

      .cls-7 {
        fill: #8a8a8a;
      }

      .cls-8 {
        fill: #878787;
      }

      .cls-9 {
        fill: #888;
      }

      .cls-10 {
        fill: #fefefe;
      }

      .cls-11 {
        fill: #e7e7e7;
      }

      .cls-12 {
        fill: #a1a1a1;
      }

      .cls-13 {
        fill: #fdfdfd;
      }

      .cls-14 {
        fill: #e6e6e6;
      }
    </style>
  </defs>
  <g id="Capa_1-2" data-name="Capa 1">
    <g>
      <path class="cls-5" d="M30.46,0c-.05,1.71-.07,3.43-.05,5.14.09.18.02.44-.21.79-.12,1.99-.13,3.99-.03,6.01.02.23-.07.43-.24.59h-.42c-1.69-1.02-3.53-1.43-5.46-1.57.22,2.45,1.08,4.61,2.5,6.59.85,1.71,1.73,3.44,3.46,4.45l.13.33c-.12,2.61-.18,5.29.19,7.91.18.1.26.21.08.34.03,1.68.01,3.35-.07,5.02-1.58-.52-3.06-1.34-4.32-2.42l-1.05-.44c-5.53-3.23-10.98-6.34-16.34-9.33v24.65s-.21.29-.21.29c.09.03.09.07,0,.11-.24.19-.32-.02-.33-.27v-25.11c-2.45-1.51-5.43-3.25-8.03-4.62l-.08-.23C0,12.15,0,6.07,0,0c10.15,0,20.31,0,30.46,0Z"/>
      <path class="cls-2" d="M30.46,0h30.46v68.93l-29.44,17.03-1.12.51-.21-.28v-9.7l.21-.13-.04-.22c7.28-4.18,14.57-8.36,21.85-12.54l.22.12c.05-.12.03-.22-.11-.28v-24.82s-.06-.07-.06-.07c-5.35,3.1-10.73,6.2-16.17,9.29l-1.16.51c-1.27,1.08-2.74,1.9-4.32,2.42-.09.07-.27-.09-.32-.19-.09-1.6-.02-3.19.22-4.76l-.02-.23c7.19-4.15,14.38-8.29,21.58-12.44l.36.04-.15-.17c-.02-3.17.06-6.37.26-9.62l.09-.25c2.66-1.49,5.33-2.97,8.01-4.42-.01-.25.06-.45.23-.6-.09-.5-.18-1-.18-1.5-.04-5.25-.08-10.52.03-15.76l.15-.75-.1.21h-30.12l-.13-.21.21.1v4.83l-.21.13.17-.15,10.84,6.2c.44.38.33,1.08.06,1.53l.07.23c-.19.26-1.25,1.41-1.48,1.42-.72-.59-1.41-1.23-2.08-1.91-.36-.57-1.56,1.02-1.55,1.22.01.25,2.6,2.67,3,3.03.44.73,1.03.62,1.77-.33l.28.02.21.1c0,2.59-.03,5.18-.09,7.77-3.62,2.17-7.27,4.29-10.95,6.38l-.02,4.73-.21.19c.13.28-.15.31-.11,0-.15-1.56.2-3.49,0-5.01-.02-.19-.18-.15-.21-.23-.43-1.31-.32-5.98-.23-7.56.01-.2-.02-.39.22-.47.05-.05.09-.01.11.11.35-.07.75.01,1.19.25-.23-.82-.48-1.66-.73-2.52.03-.24,2.54-2.8,2.82-2.86.85.16,1.69.39,2.51.67-.95-2.56-3.08-3.94-5.55-4.81l-.13-.32c-.22.23-.53-.05-.42-.32.15-2.04-.2-4.37,0-6.37.05-.46.42-.94.43-1.05.2-1.58-.25-3.52.1-5.11Z"/>
      <path class="cls-12" d="M8.44,48.45c.06-.1.14-.11.25-.1,7.22,4.16,14.44,8.33,21.66,12.49v.25s.22.1.22.1v4.73l-.21.13c-4.54-2.2-8.98-4.68-13.17-7.48l-.63-.2c-2.67-1.51-5.34-3.04-8-4.59l.04,9.57c-.09.13-.11.26-.05.38l.17-.15,21.64,12.54v.25s0,10.11,0,10.11L.02,68.92C0,52.02,0,35.12,0,18.22c.25.05.48.17.7.3,2.25,1.29,4.52,2.56,6.75,3.9.22.13.8.42.86.62.12,8.28-.08,16.56.02,24.84,0,.18-.07.47.11.58Z"/>
      <path class="cls-8" d="M139.43,11.16c0,.13.05.24.12.35,2.18,3.42,4.24,6.93,6.52,10.29l6.59-10.64h5.95v25.28h-5.48v-16.32l-7.11,10.64-7.22-10.53v16.22h-5.37V11.16h6.01Z"/>
      <path class="cls-8" d="M75.65,10.88c3.73-.31,7.69.73,10.53,3.18l-2.87,4.14c-1.48-.94-3.06-1.87-4.8-2.25-1.23-.27-2.64-.36-3.8.21-1.45.71-1.62,2.64-.31,3.58,1.53,1.09,4.98,1.58,6.9,2.27,2.85,1.03,5.36,2.64,5.63,5.95.91,11.09-14.18,10.53-19.9,4.83l3.22-3.92c2.46,1.93,6.56,3.96,9.7,2.64,1.75-.74,2.1-2.77.45-3.85-3.5-2.29-10.32-1.42-12.03-6.51-1.8-5.35,1.94-9.83,7.28-10.27Z"/>
      <polygon class="cls-8" points="108.55 11.16 108.55 16.33 100.86 16.33 100.86 36.44 95.38 36.44 95.38 16.33 87.69 16.33 87.69 11.16 108.55 11.16"/>
      <polygon class="cls-8" points="128.47 21.28 128.47 26.23 116.56 26.23 116.56 31.49 130.26 31.49 130.26 36.44 110.98 36.44 110.98 21.28 128.47 21.28"/>
      <path class="cls-12" d="M171.36,40.87v1.9h-104.44v-1.74s.15-.16.16-.16h104.28Z"/>
      <path class="cls-12" d="M188.1,54.68c.77-.14,2.22,1.33,2.66,1.93.36.48.46.97.13,1.5l-10.59,10.58c-.57.3-.89.23-1.39-.13l-6.19-6.24c-.14-.4-.15-.87.08-1.23.21-.33,1.93-1.97,2.26-2.06.47-.13.73,0,1.11.27l3.37,3.38.2.09,7.76-7.74c.16-.13.41-.31.61-.35Z"/>
      <rect class="cls-8" x="110.98" y="11.16" width="19.08" height="4.95"/>
      <path class="cls-8" d="M123.1,58.87v-11.59h5.74c.44,0,1.87.61,2.3.86,3.11,1.81,3.4,6.91.76,9.25-.64.57-2.43,1.47-3.27,1.47h-5.53Z"/>
      <path class="cls-8" d="M107.97,47.29c3.9.46,4.58,6.01,1.1,7.53l2.53,4.05h-3.58l-2.11-3.42-1.37-.05v3.48h-3.06v-11.59h6.48Z"/>
      <path class="cls-8" d="M160.93,58.87v-11.59h5.64c.21,0,1.22.32,1.48.42,4.55,1.71,4.6,8.65.19,10.62-.32.14-1.49.54-1.78.54h-5.53Z"/>
      <path class="cls-8" d="M121.62,47.29v2.63h-5.74s-.16.15-.16.16v1.63h5.37v2.63h-5.37v1.79h6.01v2.74h-9.06v-11.59h8.96Z"/>
      <polygon class="cls-8" points="159.46 47.29 159.46 49.92 153.55 49.92 153.55 51.71 158.82 51.71 158.82 54.35 153.55 54.35 153.55 56.14 159.46 56.14 159.46 58.87 150.5 58.87 150.5 47.29 159.46 47.29"/>
      <path class="cls-8" d="M66.29,58.87l4.79-11.7,2.89.03,4.65,11.67h-3.21c-.33-.33-.63-1.98-.97-2.09-.53.03-4.03-.12-4.16.05l-.73,2.04h-3.27Z"/>
      <path class="cls-8" d="M86.64,51.29c-1.52-2.36-4.64-1.43-4.95,1.33-.37,3.26,3.19,4.97,5.05,2.15h.15s2.27,1.74,2.27,1.74c-.8,1.31-2.14,2.28-3.66,2.56-5.07.92-8.4-4.11-6.44-8.65,1.76-4.05,7.58-4.7,9.99-.97-.3.22-2.25,1.97-2.42,1.85Z"/>
      <path class="cls-8" d="M100.23,49.5c-.82.47-1.52,1.2-2.28,1.79-1-.89-1.85-1.69-3.3-1.2-3.06,1.04-2.09,7.11,1.66,5.98.67-.2,1.55-1.26,1.65-1.27.14-.01,2.23,1.59,2.26,1.73.1.62-2.26,2.17-2.88,2.36-4.98,1.52-8.86-3.03-7.4-7.82s7.7-5.6,10.3-1.56Z"/>
      <path class="cls-8" d="M149.34,47.29v2.74h-3.37v8.85h-3.06v-8.69s-.15-.16-.16-.16h-3.21v-2.74h9.8Z"/>
      <rect class="cls-8" x="135.22" y="47.29" width="3.06" height="11.59"/>
      <path class="cls-8" d="M166.28,13.72c4.9-.47,5.52,7.11.91,7.65-5.16.6-5.74-7.18-.91-7.65Z"/>
      <path class="cls-8" d="M170.21,22.43v4.16c0,.17-.35,1.02-.48,1.2-1.03,1.49-3.49,1.11-4.21-.52l-2.37,1.58v-2.16c0-.2,1.9-1.17,2.05-1.42.14-.23.02-.68.05-.95h-2.11v-1.9h7.06Z"/>
      <path class="cls-8" d="M164.04,36.44c-.68-.88-1.11-1.98-1.11-3.11,0-5.29,8.09-5.28,7.37.83-.05.39-.53,1.72-.83,1.91-.33.21-1.22-.89-1.58-1.06,1.35-1.39.66-3.65-1.42-3.53-1.37.08-2.33,1.7-1.62,2.88.19.31.63.14.93.18v-1.37s1.47,0,1.47,0v3.26h-3.21Z"/>
      <path class="cls-8" d="M156.08,63.93l.93.02c.81,1.1,1.61,2.26,2.55,3.24v-3.26h.84v4.95c-.29-.01-.63.08-.85-.15l-2.63-3.33v3.48h-.84v-4.95Z"/>
      <path class="cls-8" d="M109.92,67.2v-3.26h.84v4.95l-.8-.1c-.88-1.13-1.69-2.36-2.68-3.38v3.48h-.84v-4.95l.95.05,2.53,3.21Z"/>
      <path class="cls-8" d="M104.72,64.49c1.37,1.37.68,4.19-1.38,4.39s-3.33-1.12-2.98-3.19c.32-1.9,3.06-2.5,4.36-1.2Z"/>
      <path class="cls-8" d="M146.97,63.93c1.13.2,1.51,1.86.74,2.63-.13.13-.66.36-.69.48-.04.15,1.33,1.68,1.16,1.84-.25-.02-.55.05-.79,0-.49-.1-1.02-1.55-1.43-1.73-.3-.13-.73-.02-1.05-.05v1.79h-.84v-4.95c.87.11,2.08-.15,2.9,0Z"/>
      <path class="cls-9" d="M75.41,63.93c1.75.29,2.45,2.9,1.17,4.18-.28.28-1.22.77-1.6.77h-2.16v-4.95c.79.09,1.83-.12,2.58,0Z"/>
      <path class="cls-9" d="M128.47,63.83v.84h-2.74v1.26h2.42v.84h-2.42v1.26h2.69c.22,0,.22.84,0,.84h-3.64v-4.9s.15-.16.16-.16h3.53Z"/>
      <path class="cls-9" d="M155.03,63.83v.84h-2.74v1.26h2.42v.84h-2.42v1.26h2.69c.22,0,.22.84,0,.84h-3.64v-4.9s.15-.16.16-.16h3.53Z"/>
      <polygon class="cls-9" points="143.02 63.93 143.02 64.67 140.17 64.67 140.17 65.93 142.7 65.93 142.7 66.77 140.17 66.77 140.17 68.04 143.02 68.04 143.02 68.88 139.33 68.88 139.33 63.93 143.02 63.93"/>
      <polygon class="cls-8" points="170.52 63.93 170.52 64.67 167.68 64.67 167.68 65.93 170.21 65.93 170.21 66.77 167.68 66.77 167.68 68.04 170.52 68.04 170.52 68.88 166.83 68.88 166.83 63.93 170.52 63.93"/>
      <polygon class="cls-8" points="71.77 63.93 71.77 64.67 68.93 64.67 68.93 65.93 71.35 65.93 71.35 66.77 68.93 66.77 68.93 68.04 71.77 68.04 71.77 68.88 68.08 68.88 68.08 63.93 71.77 63.93"/>
      <path class="cls-9" d="M135.53,67.3v1.58c-.18,0-.95.06-.95-.16v-4.74s.15-.16.16-.16h2.11s.77.24.86.29c.91.47,1.02,1.89.35,2.6-.6.63-1.72.6-2.53.58Z"/>
      <path class="cls-8" d="M114.65,63.84l2.12,5.04c-.22-.04-.78.08-.93-.02s-.34-1.14-.61-1.23c-.23-.08-2.04-.05-2.2.09-.19.17-.43,1.11-.49,1.15-.14.09-.72-.03-.93.01l2.12-5.04h.93Z"/>
      <path class="cls-8" d="M91.36,63.84c.23.14,1.84,4.44,2.12,5.04-1.23.28-.93-.61-1.36-1.11-.28-.32-1.79-.09-2.26-.14-.53.69-.26,1.5-1.44,1.25l2.05-4.95c.13-.14.77-.16.88-.09Z"/>
      <path class="cls-8" d="M79.04,63.93v3c0,1.09,1.66,1.69,2.3.62.04-.07.23-.48.23-.51v-3.11h.84v3.42c0,.32-.61,1.12-.91,1.3-.47.28-1.52.31-2.04.18-.46-.12-1.26-1.03-1.26-1.48v-3.42h.84Z"/>
      <path class="cls-8" d="M130.35,63.95c.14.08.94,1.67,1.13,1.66.3-.19.98-1.58,1.13-1.66.18-.11.78.03,1.03-.02l-1.58,2.37,1.68,2.58c-.25-.05-.85.08-1.03-.02-.12-.07-1.05-1.61-1.18-1.87-.87.66-.91,2.25-2.32,1.9l1.66-2.49c.06-.34-1.4-1.89-1.56-2.3-.1-.26.95-.18,1.03-.13Z"/>
      <path class="cls-8" d="M85.34,63.85c.63-.11,1.36-.07,1.92.25.33.18.66.34.43.73-.39.66-.56.17-.95-.01-2.73-1.3-3.38,3.45-.71,3.32.63-.03,1.06-.59,1.3-.61.17-.02.66.4.46.67-.58.82-2.36.86-3.17.42-1.95-1.06-1.53-4.39.72-4.77Z"/>
      <path class="cls-8" d="M163.33,63.85c.39-.07,1.01-.06,1.4.02.2.04,1.12.49,1.15.64.02.07-.44.67-.48.68-.11.03-.48-.31-.65-.39-2.25-.98-3.29,2.21-1.47,3.15.58.3.99.21,1.55-.07.37-.18.62-.68,1,.05.17.32-.82.87-1.08.92-2.06.42-3.53-.88-3.3-2.98.1-.87.99-1.88,1.87-2.03Z"/>
      <path class="cls-1" d="M97.38,63.83v.84h-1.58v4.21c-.18,0-.95.06-.95-.16v-4.05h-1.48v-.84h4Z"/>
      <polygon class="cls-8" points="118.46 63.93 118.46 68.04 121.09 68.04 121.09 68.88 117.62 68.88 117.62 63.93 118.46 63.93"/>
      <path class="cls-1" d="M175.26,46.87c.95-.14,1.03,1.23,1.68,1.68.13-.22.89-1.62.97-1.66.13-.07.35,0,.51-.02v3.16s-.42.02-.42,0v-2.32c-.31.21-.87,1.47-1.11,1.58-.22.1-.81-1.39-1.11-1.47v2.21h-.53v-3.16Z"/>
      <path class="cls-1" d="M150.08,63.83v5.06c-.23-.03-.77.09-.9-.1-.22-.32.06-4.09-.03-4.78.1-.29.68-.14.93-.17Z"/>
      <path class="cls-7" d="M163.2,11.16h1.79s.16.15.16.16v1.79s-.15.16-.16.16h-1.79s-.16-.15-.16-.16v-1.79s.12-.1.16-.16Z"/>
      <rect class="cls-8" x="98.33" y="63.93" width=".84" height="4.95"/>
      <polygon class="cls-6" points="174.63 46.87 174.63 47.4 173.68 47.4 173.68 50.03 173.16 50.03 173.16 47.4 172.21 47.4 172.21 46.87 174.63 46.87"/>
      <path class="cls-4" d="M17.29,43.29c.04-.07.12-.17.17-.15,4.33,2.41,9.06,5.19,13.11,7.62,1.45-.79,2.89-1.6,4.32-2.42l.35-.04,8.4,4.95v.25s-.14.32-.14.32l-12.92,7.38-.22-.12-21.92-12.64v-.11l.14-.32c2.83-1.62,5.67-3.24,8.5-4.85l.22.12Z"/>
      <path class="cls-4" d="M43.63,28.12l.35-.04c2.8,1.62,5.59,3.23,8.39,4.85v.25s-21.91,12.64-21.91,12.64c-.04.07-.12.17-.17.15-4.01-2.21-8.21-4.58-12.14-6.95-.45-.17-.7-.39-.75-.67-.32.08-.33-.16-.14-.41l7.49-4.3c.39-.25.83-.4,1.3-.45,1.43.82,2.88,1.62,4.32,2.42l.05.07s.04-.07.05-.07l.13-.25c4.26-2.29,8.47-4.67,12.64-7.15l.4-.07Z"/>
      <path class="cls-11" d="M26.03,33.18c-2.94,1.51-5.74,3.31-8.65,4.9-.14.13.01.23,0,.26l.15.19c-.04,1.51-.08,3.03-.11,4.55l-.15.21-8.85,5.06v-25.28c.07-.08,1.76.92,1.97,1.03,5.24,2.96,10.4,6.09,15.63,9.08Z"/>
      <path class="cls-4" d="M29.93,12.53c.15.09.27.22.42.32l.21.28c-.03,3.06-.07,6.12-.1,9.17l-.21.13s-.07-.08-.11-.11c-1.77-1.06-2.54-2.2-3.42-4-.39-.8-.52-.93-.98-1.65-1.17-1.82-1.75-3.65-1.81-5.83,2.27-.09,4.1.57,6.01,1.69Z"/>
      <path class="cls-8" d="M41.53,12.74c-.05-.38.13-1.03-.11-1.32l-10.96-6.27V.11h30.35c-.1,6,.14,12.01,0,18.01-2.61,1.87-5.4,3.52-8.33,4.84-2.78,1.99-5.75,3.74-8.85,5.16-4.08,2.36-8.59,5.25-12.75,7.33-.15.07-.26.12-.42.15l.02-5.04,11-6.34.05-7.79v-.29c1.59-1.41,3.06-2.91,4.43-4.51.48-.45-.94-1.66-1.24-1.61-1.03.88-2.01,1.81-2.95,2.79l-.24-.06Z"/>
      <path class="cls-4" d="M30.36,66.04c4.31-2.57,8.67-5.1,13.06-7.6l.22.12c.53.16,1.03.36,1.52.61l7.17,4.11c.15.09.1.29.06.44l-22.03,12.64-21.82-12.64c-.13-.11-.07-.31.02-.45,2.56-1.53,5.21-3.02,7.83-4.48.12-.06.25-.11.38-.14s.27-.07.41-.09c4.37,2.52,8.79,4.98,13.17,7.48Z"/>
      <path class="cls-11" d="M34.89,48.34c5.48-3.13,10.89-6.38,16.37-9.5.16-.09,1.16-.69,1.23-.61v25.23s-.1.25-.1.25c.06-.26-.14-.21-.28-.3-2.82-1.62-5.62-3.28-8.47-4.87l-.21-.1v-4.68l.21-.27-8.75-5.16Z"/>
      <path class="cls-12" d="M30.46,45.82c.01,1.46-.02,2.92,0,4.37,0,.18-.07.47.11.58l-.14.08-13.14-7.56c.08-1.5-.1-3.1,0-4.59.01-.2.1-.27.11-.36l13.07,7.48Z"/>
      <path class="cls-11" d="M52.49,23.38c0,3.18,0,6.36,0,9.54l-.11.25-8.75-5.06c2.96-1.71,5.9-3.45,8.85-5.16.35.02.21.23,0,.42Z"/>
      <path class="cls-2" d="M60.81,18.12c0,.24.03.49-.02.72l-8.31,4.54v-.42c2.78-1.61,5.54-3.25,8.33-4.84Z"/>
      <polygon class="cls-2" points="43.63 58.56 30.55 66.09 30.36 66.04 30.36 61.09 43.63 53.5 43.63 58.56"/>
      <path class="cls-11" d="M17.18,58.56c-2.7,1.67-5.65,3.09-8.33,4.79-.16.1-.33.12-.31.37l-.16-.1-.05-10.11.39.08c2.84,1.61,5.65,3.36,8.46,4.97Z"/>
      <path class="cls-4" d="M126.26,56.03v-5.9h1.95c.09,0,.79.26.93.33,1.93.99,1.9,4.29-.1,5.23-.14.07-.85.33-.94.33h-1.84Z"/>
      <path class="cls-4" d="M104.55,52.87v-2.84h2.48c.1,0,.73.33.83.43.6.6.43,1.8-.33,2.18-.07.04-.68.23-.71.23h-2.27Z"/>
      <path class="cls-4" d="M163.99,56.03v-5.9h2.06c.15,0,.87.33,1.04.44,1.66,1.08,1.69,3.96,0,5.02-.17.11-1,.44-1.14.44h-1.95Z"/>
      <path class="cls-10" d="M71.25,54.35l1.21-3.27c.24.98.95,2.11,1.17,3.05.03.12-.07.21-.11.21h-2.27Z"/>
      <path class="cls-4" d="M168.06,18.81c-1.89,1.88-4.82-1.19-2.48-2.75,1.9-1.26,4.01,1.22,2.48,2.75Z"/>
      <path class="cls-10" d="M166.83,24.33h1.53c.22,0,.18,1.2.16,1.42-.16,1.44-1.69,1.07-1.69.32v-1.74Z"/>
      <path class="cls-4" d="M102.3,64.69c2.2-.5,2.99,2.35,1.33,3.22-1.53.81-3.03-.99-2.16-2.48.15-.25.55-.68.83-.75Z"/>
      <path class="cls-13" d="M144.91,66.35v-1.69h1.53c.28,0,.77.49.79.8.02.36-.47.89-.79.89h-1.53Z"/>
      <path class="cls-4" d="M73.67,68.04v-3.37c1.27-.15,2.65.21,2.64,1.74s-1.41,1.76-2.64,1.63Z"/>
      <path class="cls-10" d="M135.53,66.46v-1.79c.76,0,2.01-.17,2.01.9s-1.25.9-2.01.9Z"/>
      <path class="cls-3" d="M114.98,66.88h-1.58c0-.2.72-1.99.84-1.9l.74,1.9Z"/>
      <path class="cls-3" d="M91.69,66.88h-1.58l.74-1.9c.13-.1.87,1.67.84,1.9Z"/>
      <path class="cls-4" d="M41.53,16.43c-.4.39-1.12,1.26-1.68,1-.45-.61-3.51-3.23-3.56-3.7-.04-.39,1.09-1.55,1.42-1.6.53-.08,1.91,1.74,2.4,2.09.1,0,1.23-1.28,1.42-1.47.41-.4,2.88-2.89,3.13-2.93.48-.07,1.62,1.02,1.62,1.51,0,.27-.12.39-.27.58-.91,1.22-3.29,3.39-4.48,4.53Z"/>
      <path class="cls-11" d="M30.36,12.85c.88.53,1.82.71,2.71,1.25,1.49.89,2.8,2.52,3.3,4.18-.61-.01-2.51-.94-2.95-.74l-2.52,2.66.93,2.87c-.49-.22-1.11-.37-1.58-.63l.11-9.58Z"/>
      <path class="cls-11" d="M37.84,21.28c-.17.33-.86.23-1.2.2-.21-.02-.64-.33-.59-.04.11.59.72.69,1.11,1,.71.57,1.1,1.43.74,2.32-.34-.88-.67-1.47-1.63-1.74-1.11-.31-2.16-.24-3.16-1.06-1.15-.94-.57-2.08.46-2.78,1.74-1.19,2.73,1.79,4.27,2.11Z"/>
      <path class="cls-14" d="M31.2,20.33c-.05-.18.08-.21.16-.32.15-.2,2.14-2.41,2.27-2.32.08.32.19.48,0,.8-.29.5-1.45,1.29-1.8,1.89l-.63-.06Z"/>
      <path class="cls-12" d="M28.63,13.41c1.22,1.21-.63,3.25-1.97,2.02s.62-3.37,1.97-2.02Z"/>
    </g>
  </g>
</svg>