<?xml version="1.0" encoding="UTF-8"?>
<svg id="Capa_2" xmlns="http://www.w3.org/2000/svg" viewBox="0 0 1920.09 162.64">
  <defs>
    <style>
      .cls-1 {
        fill: #fff;
      }

      .cls-2 {
        fill: #d1ebff;
      }
    </style>
  </defs>
  <g id="Capa_1-2" data-name="Capa_1">
    <rect class="cls-1" width="1920.09" height="162.64" transform="translate(1920.09 162.64) rotate(180)"/>
    <path class="cls-2" d="M171.93,156.99c86.01-.49,106.45-42.32,197.4-46.67,103.99-4.95,111.95,48.1,219.76,48,109.67-.09,117.12-54.98,221.1-48,87.75,5.91,101.33,46.27,188.95,42.67,72.64-2.98,73.95-31.15,147.94-37.33,100.08-8.35,116.5,41.62,219.23,42.66,107.19,1.11,110.36-53.08,210.38-48,96.57,4.92,122.03,56.88,209.05,52,57.33-3.21,103.45-28.99,134.35-51.57V0H0v102.32c37.43,24.27,97.58,55.1,171.93,54.67Z"/>
  </g>
</svg>