<?xml version="1.0" encoding="UTF-8"?>
<svg id="Capa_2" data-name="Capa 2" xmlns="http://www.w3.org/2000/svg" viewBox="0 0 165.39 30.42">
  <defs>
    <style>
      .cls-1 {
        fill: #f4cf05;
      }

      .cls-2 {
        fill: #f89337;
      }

      .cls-3 {
        fill: #a4c520;
      }

      .cls-4 {
        fill: #ff5c1b;
      }

      .cls-5 {
        fill: #515151;
      }

      .cls-6 {
        fill: #4d9edd;
      }
    </style>
  </defs>
  <g id="Capa_1-2" data-name="Capa 1">
    <g>
      <path class="cls-4" d="M8.34,1.17c5.84,0,9.34,3.17,9.34,7.94s-3.5,7.94-9.34,7.94h-1.37v6.67c0,.23-.23.47-.53.47H.47c-.23,0-.47-.23-.47-.47V1.67c0-.27.23-.5.47-.5h7.87ZM8.64,11.08c1.17,0,1.97-.8,1.97-1.97s-.8-1.97-1.97-1.97h-1.73v3.94h1.73Z"/>
      <path class="cls-2" d="M35.53,22.32c.07.23,0,.37-.23.5-1.77,1.17-4.34,1.87-6.91,1.87-5.9,0-9.84-3.87-9.84-9.64s3.87-9.67,9.67-9.67,8.81,3.57,8.81,9.64c0,.5-.03,1-.13,1.5-.03.27-.2.4-.5.4h-10.71s0,2.1,2.8,2.1c1.7,0,3.6-.4,5.1-1.1.23-.1.43.03.5.27l1.43,4.14ZM30.39,13.41c0-1.47-.9-2.44-2.24-2.44-1.5,0-2.5.97-2.5,2.44h4.74Z"/>
      <path class="cls-1" d="M57.61,5.87c.27,0,.5.23.5.5v23.59c0,.23-.23.47-.5.47h-5.87c-.27,0-.5-.23-.5-.47v-6.54c-1,.8-2.5,1.27-4.07,1.27-5.27,0-8.81-3.87-8.81-9.64s3.54-9.67,8.81-9.67c2.24,0,4.37.87,5.64,2.2l.5-1.2c.13-.3.3-.5.53-.5h3.77ZM51.24,12.91c-.4-1.1-1.47-1.83-2.64-1.83-1.83,0-3.07,1.6-3.07,4s1.23,3.87,3.07,3.87c1.17,0,2.24-.73,2.64-1.83v-4.2Z"/>
      <path class="cls-3" d="M77.36,5.84c.27,0,.5.23.5.5v17.38c0,.23-.23.47-.5.47h-3.77c-.27,0-.43-.23-.53-.5l-.5-1.2c-1.2,1.33-3.17,2.2-5.34,2.2-4.34,0-6.91-2.77-6.91-7.31V6.34c0-.27.23-.5.5-.5h5.87c.27,0,.5.23.5.5v10.21c0,1.13.7,1.9,1.77,1.9,1.3,0,2.04-1.07,2.04-1.07V6.34c0-.27.23-.5.5-.5h5.87Z"/>
      <path class="cls-6" d="M96.71,22.32c.07.23,0,.37-.23.5-1.77,1.17-4.34,1.87-6.91,1.87-5.9,0-9.84-3.87-9.84-9.64s3.87-9.67,9.67-9.67,8.81,3.57,8.81,9.64c0,.5-.03,1-.13,1.5-.03.27-.2.4-.5.4h-10.71s0,2.1,2.8,2.1c1.7,0,3.6-.4,5.1-1.1.23-.1.43.03.5.27l1.43,4.14ZM91.57,13.41c0-1.47-.9-2.44-2.24-2.44-1.5,0-2.5.97-2.5,2.44h4.74Z"/>
      <path class="cls-5" d="M108.42,1.17c5.84,0,9.34,3.17,9.34,7.94s-3.5,7.94-9.34,7.94h-1.37v6.67c0,.23-.23.47-.53.47h-5.97c-.23,0-.47-.23-.47-.47V1.67c0-.27.23-.5.47-.5h7.87ZM108.72,11.08c1.17,0,1.97-.8,1.97-1.97s-.8-1.97-1.97-1.97h-1.73v3.94h1.73Z"/>
      <path class="cls-5" d="M125.53,0c.27,0,.5.23.5.47v23.22c0,.27-.23.5-.5.5h-5.87c-.27,0-.5-.23-.5-.5V.47c0-.23.23-.47.5-.47h5.87Z"/>
      <path class="cls-5" d="M129.6,7.91c-.1-.23-.03-.47.17-.63,1.9-1.2,4.57-1.9,7.24-1.9,5.77,0,8.44,3.04,8.44,9.67v8.64c0,.27-.23.5-.5.5h-4.2c-.27,0-.53-.23-.53-.5l-.23-.9c-1.1,1.17-3.3,1.9-5.74,1.9-3.84,0-6.37-2.47-6.34-6.14.03-3.27,2.57-5.44,6.34-5.44,1.93,0,3.67.7,4.34,1.77v-1.4c0-1.43-1.03-2.37-2.57-2.37-1.3,0-2.9.43-4,1.07-.17.1-.37-.03-.5-.27l-1.9-4ZM138.57,18.18c-.57-.57-1.13-.83-1.83-.83-.83,0-1.4.47-1.4,1.2s.57,1.2,1.4,1.2c.7,0,1.27-.27,1.83-.83v-.73Z"/>
      <path class="cls-5" d="M153.02,7.24c1.07-1.17,3.34-1.87,5.37-1.87,4.54,0,7.01,2.1,7.01,7.31v11.01c0,.27-.23.5-.5.5h-5.87c-.27,0-.5-.23-.47-.5v-9.97c0-1.33-.6-2.1-1.63-2.1-1.9,0-2.2,1.87-2.2,1.87v10.21c0,.27-.23.5-.5.5h-5.87c-.27,0-.5-.23-.5-.5V6.31c0-.3.17-.47.47-.47h3.74c.23,0,.43.1.53.33l.43,1.07Z"/>
    </g>
  </g>
</svg>