<?xml version="1.0" encoding="UTF-8"?>
<svg id="Capa_2" data-name="Capa 2" xmlns="http://www.w3.org/2000/svg" viewBox="0 0 1920.09 162.64">
  <defs>
    <style>
      .cls-1 {
        fill: #fff;
      }

      .cls-2 {
        fill: #d1e18f;
      }
    </style>
  </defs>
  <g id="Capa_1-2" data-name="Capa 1">
    <rect class="cls-1" width="1920.09" height="162.64"/>
    <path class="cls-2" d="M1748.16,5.65c-86.01.49-106.45,42.32-197.4,46.67-103.99,4.95-111.95-48.1-219.76-48-109.67.09-117.12,54.98-221.1,48-87.75-5.91-101.33-46.27-188.95-42.67-72.64,2.98-73.95,31.15-147.94,37.33-100.08,8.35-116.5-41.62-219.23-42.66-107.19-1.11-110.36,53.08-210.38,48C246.83,47.4,221.37-4.56,134.35.32,77.02,3.53,30.9,29.31,0,51.89v110.75h1920.09V60.32c-37.43-24.27-97.58-55.1-171.93-54.67Z"/>
  </g>
</svg>