<?xml version="1.0" encoding="UTF-8"?>
<svg id="Capa_2" xmlns="http://www.w3.org/2000/svg" viewBox="0 0 1920.98 975.13">
  <defs>
    <style>
      .cls-1 {
        fill: #d1ebff;
      }
    </style>
  </defs>
  <g id="Capa_1-2" data-name="Capa_1">
    <path class="cls-1" d="M1919.37,922.23h.18c.18-.13.36-.26.53-.39v.39h.89V0h-.89v188.11c-37.43-24.27-97.58-55.1-171.93-54.67-86.01.49-106.45,42.32-197.4,46.67-103.99,4.95-111.95-48.1-219.76-48-109.67.09-117.12,54.98-221.1,48-87.75-5.91-101.33-46.27-188.95-42.67-72.64,2.98-73.95,31.15-147.94,37.33-100.08,8.35-116.5-41.62-219.23-42.66-107.19-1.11-110.36,53.08-210.38,48-96.57-4.92-122.03-56.88-209.05-52-57.33,3.21-103.45,28.99-134.35,51.57v736.33c37.55,24.07,96.94,53.87,170.04,53.46,86.01-.49,106.45-42.33,197.4-46.67,103.99-4.96,111.95,48.09,219.77,48,109.65-.09,117.11-54.99,221.1-48,87.75,5.9,101.33,46.26,188.95,42.67,72.63-2.98,73.95-31.16,147.94-37.34,100.08-8.35,116.5,41.62,219.22,42.67,107.19,1.1,110.37-53.09,210.38-48,96.57,4.92,122.03,56.88,209.05,52,58.06-3.26,104.62-29.65,135.52-52.44v-.13Z"/>
  </g>
</svg>